<svg width="90" height="90" viewBox="0 0 90 90" fill="none" xmlns="http://www.w3.org/2000/svg">
<path d="M70.8333 6H19.1667C11.3426 6 5 12.343 5 20.1674V69.8368C5 77.6612 11.3426 84.0042 19.1667 84.0042H70.8333C78.6574 84.0042 85 77.6612 85 69.8368V20.1674C85 12.343 78.6574 6 70.8333 6Z" fill="#242424"/>
<path d="M44.6685 44.9999C44.6685 40.2135 48.5486 36.3333 53.335 36.3333C58.1213 36.3333 62.0016 40.2135 62.0016 44.9999C62.0016 49.7864 58.1213 53.6665 53.335 53.6665C48.5486 53.6665 44.6685 49.7864 44.6685 44.9999Z" fill="#1ABCFE"/>
<path d="M27.3335 62.3334C27.3335 57.547 31.2136 53.6667 36.0001 53.6667H44.6666V62.3334C44.6666 67.1199 40.7865 71 36.0001 71C31.2136 71 27.3335 67.1199 27.3335 62.3334Z" fill="#0ACF83"/>
<path d="M44.6685 19V36.3332H53.335C58.1215 36.3332 62.0016 32.4531 62.0016 27.6666C62.0016 22.8802 58.1215 19 53.335 19H44.6685Z" fill="#FF7262"/>
<path d="M27.3335 27.6666C27.3335 32.4531 31.2136 36.3332 36.0001 36.3332H44.6666V19H36.0001C31.2136 19 27.3335 22.8802 27.3335 27.6666Z" fill="#F24E1E"/>
<path d="M27.3335 44.9999C27.3335 49.7864 31.2136 53.6665 36.0001 53.6665H44.6666V36.3333H36.0001C31.2136 36.3333 27.3335 40.2135 27.3335 44.9999Z" fill="#A259FF"/>
</svg>
