<svg width="67" height="67" viewBox="0 0 67 67" fill="none" xmlns="http://www.w3.org/2000/svg">
<path d="M13.7949 4.50586H52.2051C57.7455 4.50586 62.2371 8.99738 62.2373 14.5381V51.4639C62.2373 57.0047 57.7456 61.4971 52.2051 61.4971H13.7949C8.25443 61.4971 3.7627 57.0047 3.7627 51.4639V14.5381C3.76287 8.99738 8.25454 4.50586 13.7949 4.50586Z" fill="#24242D" stroke="#3B413D"/>
<mask id="mask0_157_2851" style="mask-type:luminance" maskUnits="userSpaceOnUse" x="20" y="14" width="28" height="39">
<path d="M43.7889 23.1894C43.705 22.7248 43.2855 22.4291 42.8241 22.4924C42.6563 22.5136 42.4885 22.598 42.3627 22.7248L38.0002 27.1178L34.5815 20.5494C34.3718 20.1269 33.8684 19.9791 33.4489 20.1903C33.3021 20.2748 33.1763 20.4015 33.0924 20.5494L31.2257 24.1398L26.5276 15.3115C26.3179 14.9102 25.7935 14.7412 25.395 14.9736C25.1643 15.1003 24.9965 15.3326 24.9546 15.5861L20.4033 44.8589L32.547 51.7231C33.3021 52.1455 34.2459 52.1455 35.001 51.7231L47.2496 44.8589L43.7889 23.1894Z" fill="white"/>
</mask>
<g mask="url(#mask0_157_2851)">
<path d="M20.4038 44.8595L24.9551 15.5866C25.018 15.122 25.4585 14.8051 25.9199 14.8896C26.1716 14.9319 26.4023 15.1008 26.5281 15.3332L31.2262 24.1615L33.0929 20.571C33.3026 20.1486 33.806 20.0008 34.2254 20.212C34.3722 20.2965 34.4981 20.4232 34.582 20.571L47.2501 44.8595H20.4038Z" fill="#FFA000"/>
<path opacity="0.12" d="M35.9239 15.0795L13.6919 13.1787V53.7299L20.4035 44.8593L35.9239 15.0795Z" fill="url(#paint0_linear_157_2851)"/>
<path d="M36.1131 33.4547L31.2262 24.1406L20.4038 44.8597L36.1131 33.4547Z" fill="#F57C00"/>
<path opacity="0.2" d="M13.6919 13.1787H53.9613V53.7299H13.6919V13.1787Z" fill="url(#paint1_linear_157_2851)"/>
<path d="M47.2501 44.859L43.7684 23.1684C43.6845 22.7037 43.2651 22.4081 42.8036 22.4714C42.6359 22.4925 42.4681 22.577 42.3422 22.7037L20.4038 44.859L32.5475 51.7232C33.3026 52.1456 34.2464 52.1456 35.0015 51.7232L47.2501 44.859Z" fill="#FFCA28"/>
<path d="M43.7889 23.1904C43.705 22.7257 43.2855 22.4301 42.8241 22.4934C42.6563 22.5145 42.4885 22.599 42.3627 22.7257L38.0002 27.1188L34.5815 20.5503C34.3717 20.1279 33.8684 19.9801 33.4489 20.1913C33.3021 20.2758 33.1762 20.4025 33.0923 20.5503L31.2257 24.1408L26.5276 15.3125C26.3179 14.9112 25.7935 14.7422 25.395 14.9745C25.1643 15.1013 24.9965 15.3336 24.9546 15.587L20.4033 44.8599H20.3823L20.4033 44.881L20.5291 44.9444L38.0002 27.33L42.3627 22.9369C42.6983 22.599 43.2226 22.599 43.5582 22.9369C43.684 23.0637 43.7679 23.2115 43.7889 23.4016L47.2286 44.881L47.2705 44.8599L43.7889 23.1904ZM20.4452 44.8177L24.9546 15.7982C25.0175 15.3336 25.4579 15.0168 25.9194 15.1013C26.171 15.1435 26.4018 15.3125 26.5276 15.5448L31.2257 24.3731L33.0923 20.7827C33.3021 20.3602 33.8054 20.2124 34.2249 20.4236C34.3717 20.5081 34.4976 20.6348 34.5815 20.7827L37.9373 27.2033L20.4452 44.8177Z" fill="white" fill-opacity="0.2"/>
<path opacity="0.2" d="M35.0015 51.512C34.2464 51.9344 33.3026 51.9344 32.5475 51.512L20.4248 44.6689L20.4038 44.859L32.5475 51.7232C33.3026 52.1456 34.2464 52.1456 35.0015 51.7232L47.2501 44.859L47.2291 44.6689L35.0015 51.512Z" fill="#A52714"/>
<path d="M43.7894 23.1904C43.7055 22.7257 43.286 22.4301 42.8246 22.4934C42.6568 22.5145 42.489 22.599 42.3632 22.7257L38.0007 27.1188L34.582 20.5503C34.3722 20.1279 33.8689 19.9801 33.4494 20.1913C33.3026 20.2758 33.1767 20.4025 33.0929 20.5503L31.2262 24.1408L26.5281 15.3125C26.3184 14.9112 25.794 14.7422 25.3955 14.9745C25.1648 15.1013 24.997 15.3336 24.9551 15.587L20.4038 44.8599L32.5475 51.7241C33.3026 52.1465 34.2464 52.1465 35.0015 51.7241L47.2501 44.8599L43.7894 23.1904Z" fill="url(#paint2_linear_157_2851)"/>
</g>
<defs>
<linearGradient id="paint0_linear_157_2851" x1="25.6347" y1="34.8388" x2="23.9518" y2="33.9656" gradientUnits="userSpaceOnUse">
<stop stop-color="#A52714"/>
<stop offset="0.4" stop-color="#A52714" stop-opacity="0.5"/>
<stop offset="0.8" stop-color="#A52714" stop-opacity="0"/>
</linearGradient>
<linearGradient id="paint1_linear_157_2851" x1="32.7655" y1="32.3807" x2="32.0094" y2="31.6299" gradientUnits="userSpaceOnUse">
<stop stop-color="#A52714" stop-opacity="0.8"/>
<stop offset="0.5" stop-color="#A52714" stop-opacity="0.21"/>
<stop offset="1" stop-color="#A52714" stop-opacity="0"/>
</linearGradient>
<linearGradient id="paint2_linear_157_2851" x1="19.681" y1="21.4105" x2="47.9156" y2="49.4488" gradientUnits="userSpaceOnUse">
<stop stop-color="white" stop-opacity="0.1"/>
<stop offset="1" stop-color="white" stop-opacity="0"/>
</linearGradient>
</defs>
</svg>
