<svg xmlns="http://www.w3.org/2000/svg" viewBox="0 0 512 512">
  <path d="M504.4 115.83a5.72 5.72 0 00-.28-.68 8.52 8.52 0 00-.53-1.25 6 6 0 00-.54-.71 9.36 9.36 0 00-.72-.94c-.23-.22-.52-.4-.77-.6a8.84 8.84 0 00-.9-.68L404.4 55.55a8 8 0 00-8 0L300.12 111a8.07 8.07 0 00-.88.69 7.68 7.68 0 00-.78.6 8.23 8.23 0 00-.72.93c-.17.24-.39.45-.54.71a9.7 9.7 0 00-.52 1.25c-.08.23-.21.44-.28.68a8.08 8.08 0 00-.28 2.08v105.24l-80.22 46.19V63.44a7.8 7.8 0 00-.28-2.09c-.06-.24-.2-.45-.28-.68a8.35 8.35 0 00-.52-1.24 6.44 6.44 0 00-.54-.71 9.42 9.42 0 00-.72-.94 7.45 7.45 0 00-.78-.6 8.76 8.76 0 00-.88-.68L112.4 1.13a8 8 0 00-8 0L8.14 56.56a8.23 8.23 0 00-.87.69 7.35 7.35 0 00-.78.6 8.15 8.15 0 00-.71.93 6.44 6.44 0 00-.55.71 9.93 9.93 0 00-.52 1.25 6 6 0 00-.28.68A8.08 8.08 0 005.14 63.44v340.69a8 8 0 004 6.93l192.26 110.85a8.83 8.83 0 001.16.54c.12.05.24.13.37.17a8 8 0 004.42 0c.14-.05.26-.13.39-.18a7.36 7.36 0 001.15-.54L400.4 410.93a8 8 0 004-6.93V299.76l92-53a8 8 0 004-6.92V117.92a8.63 8.63 0 00-.02-2.09zM111.6 17.28l80.19 46.15-80.2 46.18-80.18-46.17zm88.25 60V278.6l-46.53 26.79-33.69 19.4V123.5l46.53-26.79zm0 412.78L23.08 388.47V77.32l33.69 19.4 46.53 26.79v200.26a8 8 0 004 6.92l192.25 110.84l33.69 19.4zm8-106.17-80.15-46.18 80.2-46.18 80.18 46.15zm88.26 60V313.2l-33.68-19.4-46.54-26.79v-90.59l46.53-26.79 33.69-19.4V384.9l-80.2 46.19z" fill="#FF2D20"/>
</svg>
