<svg width="67" height="67" viewBox="0 0 67 67" fill="none" xmlns="http://www.w3.org/2000/svg">
<path d="M13.7949 4.50586H52.2051C57.7455 4.50586 62.2371 8.99738 62.2373 14.5381V51.4639C62.2373 57.0047 57.7456 61.4971 52.2051 61.4971H13.7949C8.25443 61.4971 3.7627 57.0047 3.7627 51.4639V14.5381C3.76287 8.99738 8.25454 4.50586 13.7949 4.50586Z" fill="#24242D" stroke="#3B413D"/>
<path d="M36.0585 17.9797C34.4369 16.0546 33.0405 14.0995 32.7552 13.6935C32.7252 13.6634 32.6801 13.6634 32.6501 13.6935C32.3648 14.0995 30.9685 16.0546 29.3469 17.9797C15.4282 35.741 31.539 47.7275 31.539 47.7275L31.6742 47.8177C31.7943 49.6675 32.0946 52.3295 32.0946 52.3295H32.6952H33.2957C33.2957 52.3295 33.596 49.6825 33.7162 47.8177L33.8513 47.7124C33.8663 47.7275 49.9771 35.741 36.0585 17.9797ZM32.6952 47.4717C32.6952 47.4717 31.9745 46.8552 31.7793 46.5393V46.5093L32.6501 27.1687C32.6501 27.1085 32.7402 27.1085 32.7402 27.1687L33.611 46.5093V46.5393C33.4159 46.8552 32.6952 47.4717 32.6952 47.4717Z" fill="#00684A"/>
</svg>
