<svg width="67" height="67" viewBox="0 0 67 67" fill="none" xmlns="http://www.w3.org/2000/svg">
<path d="M52.2055 4.00586H13.7947C7.97803 4.00586 3.2627 8.72144 3.2627 14.5384V51.4643C3.2627 57.2813 7.97803 61.9969 13.7947 61.9969H52.2055C58.0221 61.9969 62.7374 57.2813 62.7374 51.4643V14.5384C62.7374 8.72144 58.0221 4.00586 52.2055 4.00586Z" fill="#242424"/>
<path d="M33.32 52.7836C32.7904 52.7836 32.296 52.6415 31.8371 52.3929L27.1417 49.5871C26.4357 49.1965 26.7887 49.0545 27.0005 48.9834C27.9538 48.6637 28.1302 48.5927 29.1187 48.0245C29.2246 47.9535 29.3659 47.9889 29.4719 48.0599L33.0729 50.2265C33.2141 50.2975 33.3905 50.2975 33.4964 50.2265L47.5831 42.0223C47.7234 41.9513 47.7953 41.8093 47.7953 41.6318V25.2591C47.7953 25.0814 47.7234 24.9394 47.5831 24.8684L33.4964 16.6998C33.3552 16.6288 33.1786 16.6288 33.0729 16.6998L18.9865 24.8684C18.8452 24.9394 18.7747 25.117 18.7747 25.2591V41.6318C18.7747 41.7738 18.8452 41.9513 18.9865 42.0223L22.8346 44.2597C24.9176 45.3253 26.2238 44.0823 26.2238 42.8392V26.6796C26.2238 26.4665 26.4002 26.2535 26.6475 26.2535H28.4479C28.6598 26.2535 28.8716 26.4311 28.8716 26.6796V42.8392C28.8716 45.6448 27.3535 47.2786 24.7057 47.2786C23.8938 47.2786 23.2583 47.2786 21.4577 46.3907L17.7507 44.2597C16.8329 43.7271 16.2681 42.7326 16.2681 41.6672V25.2945C16.2681 24.2291 16.8329 23.2348 17.7507 22.702L31.8371 14.498C32.7197 14.0007 33.9201 14.0007 34.8026 14.498L48.8896 22.702C49.8067 23.2348 50.3713 24.2291 50.3713 25.2945V41.6672C50.3713 42.7326 49.8067 43.7271 48.8896 44.2597L34.8026 52.4639C34.379 52.6415 33.8496 52.7836 33.32 52.7836Z" fill="#5FA04E"/>
<path d="M37.717 41.5803C31.5679 41.5803 30.3032 38.7187 30.3032 36.2863C30.3032 36.0717 30.4788 35.857 30.7247 35.857H32.5516C32.7624 35.857 32.9382 36.0001 32.9382 36.2147C33.2191 38.1105 34.0273 39.0405 37.7519 39.0405C40.7028 39.0405 41.9681 38.361 41.9681 36.7513C41.9681 35.8212 41.6155 35.1415 37.0135 34.6766C33.184 34.2831 30.795 33.4247 30.795 30.3126C30.795 27.4153 33.184 25.6982 37.1892 25.6982C41.6871 25.6982 43.8999 27.2722 44.1808 30.7061C44.1808 30.8133 44.1459 30.9207 44.0762 31.0279C44.0045 31.0995 43.8999 31.1712 43.7934 31.1712H41.9313C41.7569 31.1712 41.5806 31.0279 41.5457 30.8492C41.1234 28.8819 40.0344 28.2379 37.1542 28.2379C33.9219 28.2379 33.5353 29.3826 33.5353 30.241C33.5353 31.2784 33.992 31.6004 38.3487 32.1727C42.6695 32.745 44.7079 33.5677 44.7079 36.6439C44.7079 39.7917 42.1425 41.5803 37.717 41.5803Z" fill="#5FA04E"/>
</svg>
