<svg width="90" height="67" viewBox="0 0 90 67" fill="none" xmlns="http://www.w3.org/2000/svg">
<path d="M72.5007 33.3706C72.5007 29.7128 67.9388 26.2463 60.9445 24.0966C62.5586 16.9386 61.8412 11.2436 58.6804 9.42033C57.9518 8.99265 57.0999 8.79006 56.1696 8.79006V11.2999C56.6852 11.2999 57.0999 11.4012 57.4474 11.5925C58.9718 12.4704 59.6331 15.8131 59.1175 20.1124C58.9942 21.1704 58.7924 22.2846 58.5459 23.4213C56.3489 22.8811 53.9503 22.4647 51.4283 22.1946C49.9151 20.1124 48.3459 18.2216 46.7655 16.5672C50.4195 13.1569 53.8494 11.2886 56.1808 11.2886V8.77881C53.0984 8.77881 49.0633 10.9848 44.9833 14.8114C40.9033 11.0073 36.8682 8.82383 33.7858 8.82383V11.3337C36.106 11.3337 39.5471 13.1907 43.2011 16.5784C41.6319 18.2329 40.0627 20.1124 38.5719 22.1946C36.0388 22.4647 33.6401 22.8811 31.4432 23.4326C31.1854 22.3071 30.9948 21.2154 30.8603 20.1687C30.3335 15.8694 30.9836 12.5267 32.4968 11.6375C32.8331 11.4349 33.2702 11.3449 33.7858 11.3449V8.83508C32.8443 8.83508 31.9924 9.03767 31.2526 9.46535C28.103 11.2886 27.3968 16.9723 29.0221 24.1079C22.0503 26.2688 17.5107 29.724 17.5107 33.3706C17.5107 37.0284 22.0727 40.4949 29.0669 42.6446C27.4529 49.8027 28.1702 55.4976 31.3311 57.3209C32.0597 57.7486 32.9115 57.9512 33.8531 57.9512C36.9355 57.9512 40.9706 55.7452 45.0506 51.9186C49.1305 55.7227 53.1657 57.9061 56.2481 57.9061C57.1896 57.9061 58.0415 57.7036 58.7812 57.2759C61.9309 55.4526 62.637 49.7689 61.0118 42.6333C67.9612 40.4837 72.5007 37.0172 72.5007 33.3706ZM57.907 25.8636C57.4922 27.3155 56.9766 28.8124 56.3938 30.3093C55.9342 29.4089 55.4523 28.5085 54.9254 27.6081C54.4098 26.7078 53.8606 25.8299 53.3114 24.9745C54.903 25.2109 56.4386 25.5035 57.907 25.8636ZM52.7734 37.85C51.8991 39.3694 51.0024 40.8101 50.0721 42.1494C48.402 42.2957 46.7095 42.3745 45.0057 42.3745C43.3132 42.3745 41.6207 42.2957 39.9618 42.1606C39.0315 40.8213 38.1236 39.3919 37.2493 37.8838C36.3974 36.4094 35.624 34.9125 34.9179 33.4044C35.6128 31.8962 36.3974 30.3881 37.2381 28.9137C38.1124 27.3943 39.0091 25.9537 39.9394 24.6144C41.6095 24.468 43.302 24.3893 45.0057 24.3893C46.6982 24.3893 48.3908 24.468 50.0496 24.6031C50.98 25.9424 51.8879 27.3718 52.7622 28.8799C53.614 30.3543 54.3874 31.8512 55.0936 33.3594C54.3874 34.8675 53.614 36.3757 52.7734 37.85ZM56.3938 36.3869C56.9991 37.8951 57.5147 39.4032 57.9406 40.8663C56.4722 41.2265 54.9254 41.5304 53.3226 41.7667C53.8718 40.9001 54.4211 40.011 54.9367 39.0993C55.4523 38.1989 55.9342 37.2873 56.3938 36.3869ZM45.0281 48.3958C43.9857 47.3153 42.9433 46.1111 41.9121 44.7943C42.9209 44.8393 43.9521 44.8731 44.9945 44.8731C46.0481 44.8731 47.0905 44.8505 48.1105 44.7943C47.1018 46.1111 46.0593 47.3153 45.0281 48.3958ZM36.6889 41.7667C35.0972 41.5304 33.5616 41.2377 32.0933 40.8776C32.508 39.4257 33.0236 37.9288 33.6065 36.4319C34.066 37.3323 34.548 38.2327 35.0748 39.1331C35.6016 40.0335 36.1396 40.9114 36.6889 41.7667ZM44.9721 18.3454C46.0145 19.4259 47.0569 20.6301 48.0881 21.947C47.0793 21.9019 46.0481 21.8682 45.0057 21.8682C43.9521 21.8682 42.9097 21.8907 41.8897 21.947C42.8985 20.6301 43.9409 19.4259 44.9721 18.3454ZM36.6777 24.9745C36.1284 25.8411 35.5792 26.7303 35.0636 27.6419C34.548 28.5423 34.066 29.4427 33.6065 30.3431C33.0012 28.8349 32.4856 27.3268 32.0597 25.8636C33.528 25.5147 35.0748 25.2109 36.6777 24.9745ZM26.5338 39.0656C22.5659 37.3661 19.9991 35.1376 19.9991 33.3706C19.9991 31.6036 22.5659 29.3639 26.5338 27.6757C27.4977 27.2592 28.5513 26.8878 29.6386 26.5389C30.2775 28.7449 31.1181 31.0409 32.1605 33.3931C31.1293 35.7341 30.2999 38.0189 29.6722 40.2135C28.5625 39.8646 27.5089 39.482 26.5338 39.0656ZM32.5641 55.1487C31.0397 54.2708 30.3784 50.9281 30.894 46.6288C31.0172 45.5708 31.219 44.4566 31.4656 43.3199C33.6625 43.8601 36.0612 44.2765 38.5831 44.5467C40.0963 46.6288 41.6655 48.5196 43.246 50.1741C39.5919 53.5843 36.162 55.4526 33.8306 55.4526C33.3262 55.4413 32.9003 55.34 32.5641 55.1487ZM59.1511 46.5725C59.6779 50.8719 59.0278 54.2146 57.5147 55.1037C57.1784 55.3063 56.7413 55.3963 56.2257 55.3963C53.9054 55.3963 50.4644 53.5393 46.8103 50.1516C48.3796 48.4971 49.9488 46.6175 51.4395 44.5354C53.9727 44.2653 56.3714 43.8489 58.5683 43.2974C58.8261 44.4341 59.0278 45.5258 59.1511 46.5725ZM63.4665 39.0656C62.5025 39.482 61.4489 39.8534 60.3617 40.2023C59.7228 37.9963 58.8821 35.7004 57.8397 33.3481C58.8709 31.0071 59.7004 28.7224 60.328 26.5277C61.4377 26.8766 62.4913 27.2592 63.4777 27.6757C67.4456 29.3751 70.0124 31.6036 70.0124 33.3706C70.0012 35.1376 67.4344 37.3773 63.4665 39.0656Z" fill="#61DAFB"/>
<path d="M44.9945 38.514C47.8235 38.514 50.1168 36.2112 50.1168 33.3705C50.1168 30.5299 47.8235 28.2271 44.9945 28.2271C42.1654 28.2271 39.8721 30.5299 39.8721 33.3705C39.8721 36.2112 42.1654 38.514 44.9945 38.514Z" fill="#61DAFB"/>
</svg>
