<svg width="67" height="67" viewBox="0 0 67 67" fill="none" xmlns="http://www.w3.org/2000/svg">
<path d="M13.7949 4.50586H52.2051C57.7455 4.50586 62.2371 8.99738 62.2373 14.5381V51.4639C62.2373 57.0047 57.7456 61.4971 52.2051 61.4971H13.7949C8.25443 61.4971 3.7627 57.0047 3.7627 51.4639V14.5381C3.76287 8.99738 8.25454 4.50586 13.7949 4.50586Z" fill="#24242D" stroke="#3B413D"/>
<path d="M23.3496 29.242C24.7465 23.6249 28.2387 20.8164 33.8262 20.8164C42.2074 20.8164 43.2551 27.1356 47.4457 28.1888C50.2394 28.8909 52.684 27.8377 54.7793 25.0292C53.3824 30.6463 49.8902 33.4548 44.3027 33.4548C35.9215 33.4548 34.8738 27.1356 30.6832 26.0824C27.8894 25.3803 25.4449 26.4335 23.3496 29.242ZM12.873 41.8804C14.2699 36.2633 17.7621 33.4548 23.3496 33.4548C31.7308 33.4548 32.7785 39.774 36.9691 40.8272C39.7629 41.5293 42.2074 40.4761 44.3027 37.6676C42.9058 43.2846 39.4137 46.0932 33.8262 46.0932C25.4449 46.0932 24.3973 39.774 20.2066 38.7208C17.4129 38.0187 14.9684 39.0719 12.873 41.8804Z" fill="#44A8B3"/>
</svg>
